{"title":"Rudramadevi (2015) - DesiSCR Rip - x264 - 1CD - Dual Audio (Hind","uid":12603714,"size":729848841,"categoryP":"video","categoryS":"movies","magnet":"?xt=urn:btih:74abd49e6992751ac5fa43fe9d141cd8508ef0b0&amp;dn=Rudramadevi+%282015%29+-+DesiSCR+Rip+-+x264+-+1CD+-+Dual+Audio+%28Hind&amp;tr=udp%3A%2F%2Ftracker.leechers-paradise.org%3A6969&amp;tr=udp%3A%2F%2Fzer0day.ch%3A1337&amp;tr=udp%3A%2F%2Fopen.demonii.com%3A1337&amp;tr=udp%3A%2F%2Ftracker.coppersurfer.tk%3A6969&amp;tr=udp%3A%2F%2Fexodus.desync.com%3A6969","seeders":1,"leechers":0,"uploader":"makintos13","files":1,"time":1445364360,"description":"http://imgmak.com/2m \nhttp://imgmak.com/2k \nhttp://imgmak.com/27 \nhttp://imgmak.com/2z \nhttp://imgmak.com/2x \nhttp://imgmak.com/2b \nhttp://imgmak.com/2R \nhttp://imgmak.com/2p\r\n\r\n\r\nFormat : Matroska\r\nFormat version : Version 2\r\nFile size : 696 MiB\r\nDuration : 2h 34mn\r\nOverall bit rate : 630 Kbps\r\n\r\nFormat : AVC\r\nFormat/Info : Advanced Video Codec\r\nFormat profile :   \r\nFormat settings, CABAC : Yes\r\nFormat settings, ReFrames : 8 frames\r\nCodec ID : V_MPEG4/ISO/AVC\r\nDuration : 2h 34mn\r\nBit rate : 105 Kbps\r\nNominal bit rate : 116 Kbps\r\nWidth : 640 pixels\r\nHeight : 272 pixels\r\n\r\nAudio #1\r\nID : 2\r\nFormat : AC-3\r\nFormat/Info : Audio Coding 3\r\nMode extension : CM (complete main)\r\nFormat settings, Endianness : Big\r\nCodec ID : A_AC3\r\nDuration : 2h 34mn\r\nBit rate mode : Constant\r\nBit rate : 128 Kbps\r\nChannel(s) : 2 channels\r\nChannel positions : Front: L R\r\nSampling rate : 48.0 KHz\r\nCompression mode : Lossy\r\nStream size : 141 MiB (20%)\r\nTitle : Tamil Audio\r\n\r\nAudio #2\r\nID : 3\r\nFormat : AC-3\r\nFormat/Info : Audio Coding 3\r\nMode extension : CM (complete main)\r\nFormat settings, Endianness : Big\r\nCodec ID : A_AC3\r\nDuration : 2h 34mn\r\nBit rate mode : Constant\r\nBit rate : 384 Kbps\r\nChannel(s) : 2 channels\r\nChannel positions : Front: L R\r\nSampling rate : 48.0 KHz\r\nCompression mode : Lossy\r\nStream size : 424 MiB (61%)\r\nTitle : Hindi Audio","torrent":{"xt":"urn:btih:74abd49e6992751ac5fa43fe9d141cd8508ef0b0","amp;dn":"Rudramadevi+%282015%29+-+DesiSCR+Rip+-+x264+-+1CD+-+Dual+Audio+%28Hind","amp;tr":["udp%3A%2F%2Ftracker.leechers-paradise.org%3A6969","udp%3A%2F%2Fzer0day.ch%3A1337","udp%3A%2F%2Fopen.demonii.com%3A1337","udp%3A%2F%2Ftracker.coppersurfer.tk%3A6969","udp%3A%2F%2Fexodus.desync.com%3A6969"],"infoHash":"74abd49e6992751ac5fa43fe9d141cd8508ef0b0","infoHashBuffer":{"type":"Buffer","data":[116,171,212,158,105,146,117,26,197,250,67,254,157,20,28,216,80,142,240,176]},"announce":[],"urlList":[]}}